<svg width="512" height="512" viewBox="0 0 512 512" xmlns="http://www.w3.org/2000/svg">
  <rect width="512" height="512" fill="#000000"/>

  <defs>
    <!-- Clip paths for each quadrant (center at ~256,256) -->
    <clipPath id="quadTL">
      <rect x="0" y="0" width="256" height="256"/>
    </clipPath>
    <clipPath id="quadTR">
      <rect x="256" y="0" width="256" height="256"/>
    </clipPath>
    <clipPath id="quadBL">
      <rect x="0" y="256" width="256" height="256"/>
    </clipPath>
    <clipPath id="quadBR">
      <rect x="256" y="256" width="256" height="256"/>
    </clipPath>

    <!-- Glow filter -->
    <filter id="radiantGlow" x="-50%" y="-50%" width="200%" height="200%">
      <feGaussianBlur stdDeviation="3" result="blur" />
      <feMerge>
        <feMergeNode in="blur" />
        <feMergeNode in="SourceGraphic" />
      </feMerge>
    </filter>

    <!-- Top-Left: LIVE / SPRING -->
    <linearGradient id="gradTL" x1="0%" y1="100%" x2="100%" y2="0%">
      <stop offset="0%" stop-color="#2bd4e1" />
      <stop offset="100%" stop-color="#4cdd86" />
    </linearGradient>

    <!-- Top-Right: CONVENTIONS / AUTUMN -->
    <linearGradient id="gradTR" x1="0%" y1="0%" x2="100%" y2="100%">
      <stop offset="0%" stop-color="#bd3e04" />
      <stop offset="100%" stop-color="#ef8e5f" />
    </linearGradient>

    <!-- Bottom-Right: CAMPUS / WINTER -->
    <linearGradient id="gradBR" x1="100%" y1="0%" x2="0%" y2="100%">
      <stop offset="0%" stop-color="#b4c7fa" />
      <stop offset="100%" stop-color="#507bf2" />
    </linearGradient>

    <!-- Bottom-Left: SOCIAL / SUMMER -->
    <linearGradient id="gradBL" x1="100%" y1="0%" x2="0%" y2="100%">
      <stop offset="0%" stop-color="#c20460" />
      <stop offset="100%" stop-color="#d957f7" />
    </linearGradient>
  </defs>

  <!-- Top-Left quadrant: Live / Spring -->
  <g clip-path="url(#quadTL)">
    <g transform="translate(41, 146) scale(1.5)">
      <path d="M171.76,109.5c.92-9.02-2.67-18.35-9.75-24,1.37,3.02,2.66,5.55,3.52,8.84,5.32,20.2-8.34,43.39-30.82,41.31-18.16-1.68-21.17-16.77-33.11-26.89-5.64-4.78-11.37-6.79-15.67-13.58-11.88-18.71-.42-35.85,16.81-44.94-.52,8.49,1.98,17.94,9,23.25-4.26-9.79-5.59-17.77-2.27-28.15,5.86-18.31,25.75-27.78,42.71-17.16,7.6,4.75,10.5,13.29,16.64,19.36,9.01,8.9,19.89,10.61,23.55,25.2,4.37,17.42-6.84,28.65-20.62,36.76ZM172.5,73.5c.15-18.42-16.57-35.26-35.26-33.76l.7,5.68c15.42.26,28.19,12.46,28.56,28.07h6ZM142.5,119.25c13.55-5.4,17.35-20.47,8.56-32.19-4.67-6.23-18.69-16.36-21.47-22.03-1.68-3.43-1.54-7.39,0-10.82.49-1.09,2.41-2.65,2.41-2.84v-10.88c-13.31,5.22-17.12,20.8-8.56,32.19,4.88,6.5,18.3,15.92,21.46,22.04,2.18,4.23,1.74,7.23-.28,11.27-.41.83-2.12,2.22-2.12,2.38v10.88ZM161.25,73.5c.15-12.68-10.77-22.75-23.28-22.94-1.12.82-1.15,5.35-.03,6.11,10.28.01,15.93,7.04,18,16.5l5.3.33ZM150,73.5c.05-5.41-3.02-9.39-8.1-11.02-1.04-.33-3.58-1.46-4.31-.26-2.09,7.42,1.57,4.5,4.57,6.74,2.46,1.84,1.27,6.2,7.83,4.54ZM107.96,86.29c-8.91-2.32-5.25,6.86-3.33,11.95,4.76,12.61,18.85,23.06,32.62,21.76l-.7-5.68c-15.33.3-28.09-12.91-28.59-28.03ZM119.24,86.26c-8.6-1.6-6.08,4.75-3.53,9.9,3.78,7.63,12.19,13.07,20.81,13.03l.69-5.65c-9.82-.34-17.81-7.16-17.97-17.28ZM137.16,92.33c-6.5.42-6.19-9.83-12.61-4.9,1.24,6.32,6.21,10.78,12.7,10.82l-.08-5.92Z"
            fill="url(#gradTL)" filter="url(#radiantGlow)" />
    </g>
  </g>

  <!-- Top-Right quadrant: Conventions / Autumn -->
  <g clip-path="url(#quadTR)">
    <g transform="translate(41, 146) scale(1.5)">
      <path d="M171.76,109.5c.92-9.02-2.67-18.35-9.75-24,1.37,3.02,2.66,5.55,3.52,8.84,5.32,20.2-8.34,43.39-30.82,41.31-18.16-1.68-21.17-16.77-33.11-26.89-5.64-4.78-11.37-6.79-15.67-13.58-11.88-18.71-.42-35.85,16.81-44.94-.52,8.49,1.98,17.94,9,23.25-4.26-9.79-5.59-17.77-2.27-28.15,5.86-18.31,25.75-27.78,42.71-17.16,7.6,4.75,10.5,13.29,16.64,19.36,9.01,8.9,19.89,10.61,23.55,25.2,4.37,17.42-6.84,28.65-20.62,36.76ZM172.5,73.5c.15-18.42-16.57-35.26-35.26-33.76l.7,5.68c15.42.26,28.19,12.46,28.56,28.07h6ZM142.5,119.25c13.55-5.4,17.35-20.47,8.56-32.19-4.67-6.23-18.69-16.36-21.47-22.03-1.68-3.43-1.54-7.39,0-10.82.49-1.09,2.41-2.65,2.41-2.84v-10.88c-13.31,5.22-17.12,20.8-8.56,32.19,4.88,6.5,18.3,15.92,21.46,22.04,2.18,4.23,1.74,7.23-.28,11.27-.41.83-2.12,2.22-2.12,2.38v10.88ZM161.25,73.5c.15-12.68-10.77-22.75-23.28-22.94-1.12.82-1.15,5.35-.03,6.11,10.28.01,15.93,7.04,18,16.5l5.3.33ZM150,73.5c.05-5.41-3.02-9.39-8.1-11.02-1.04-.33-3.58-1.46-4.31-.26-2.09,7.42,1.57,4.5,4.57,6.74,2.46,1.84,1.27,6.2,7.83,4.54ZM107.96,86.29c-8.91-2.32-5.25,6.86-3.33,11.95,4.76,12.61,18.85,23.06,32.62,21.76l-.7-5.68c-15.33.3-28.09-12.91-28.59-28.03ZM119.24,86.26c-8.6-1.6-6.08,4.75-3.53,9.9,3.78,7.63,12.19,13.07,20.81,13.03l.69-5.65c-9.82-.34-17.81-7.16-17.97-17.28ZM137.16,92.33c-6.5.42-6.19-9.83-12.61-4.9,1.24,6.32,6.21,10.78,12.7,10.82l-.08-5.92Z"
            fill="url(#gradTR)" filter="url(#radiantGlow)" />
    </g>
  </g>

  <!-- Bottom-Left quadrant: Social / Summer -->
  <g clip-path="url(#quadBL)">
    <g transform="translate(41, 146) scale(1.5)">
      <path d="M171.76,109.5c.92-9.02-2.67-18.35-9.75-24,1.37,3.02,2.66,5.55,3.52,8.84,5.32,20.2-8.34,43.39-30.82,41.31-18.16-1.68-21.17-16.77-33.11-26.89-5.64-4.78-11.37-6.79-15.67-13.58-11.88-18.71-.42-35.85,16.81-44.94-.52,8.49,1.98,17.94,9,23.25-4.26-9.79-5.59-17.77-2.27-28.15,5.86-18.31,25.75-27.78,42.71-17.16,7.6,4.75,10.5,13.29,16.64,19.36,9.01,8.9,19.89,10.61,23.55,25.2,4.37,17.42-6.84,28.65-20.62,36.76ZM172.5,73.5c.15-18.42-16.57-35.26-35.26-33.76l.7,5.68c15.42.26,28.19,12.46,28.56,28.07h6ZM142.5,119.25c13.55-5.4,17.35-20.47,8.56-32.19-4.67-6.23-18.69-16.36-21.47-22.03-1.68-3.43-1.54-7.39,0-10.82.49-1.09,2.41-2.65,2.41-2.84v-10.88c-13.31,5.22-17.12,20.8-8.56,32.19,4.88,6.5,18.3,15.92,21.46,22.04,2.18,4.23,1.74,7.23-.28,11.27-.41.83-2.12,2.22-2.12,2.38v10.88ZM161.25,73.5c.15-12.68-10.77-22.75-23.28-22.94-1.12.82-1.15,5.35-.03,6.11,10.28.01,15.93,7.04,18,16.5l5.3.33ZM150,73.5c.05-5.41-3.02-9.39-8.1-11.02-1.04-.33-3.58-1.46-4.31-.26-2.09,7.42,1.57,4.5,4.57,6.74,2.46,1.84,1.27,6.2,7.83,4.54ZM107.96,86.29c-8.91-2.32-5.25,6.86-3.33,11.95,4.76,12.61,18.85,23.06,32.62,21.76l-.7-5.68c-15.33.3-28.09-12.91-28.59-28.03ZM119.24,86.26c-8.6-1.6-6.08,4.75-3.53,9.9,3.78,7.63,12.19,13.07,20.81,13.03l.69-5.65c-9.82-.34-17.81-7.16-17.97-17.28ZM137.16,92.33c-6.5.42-6.19-9.83-12.61-4.9,1.24,6.32,6.21,10.78,12.7,10.82l-.08-5.92Z"
            fill="url(#gradBL)" filter="url(#radiantGlow)" />
    </g>
  </g>

  <!-- Bottom-Right quadrant: Campus / Winter -->
  <g clip-path="url(#quadBR)">
    <g transform="translate(41, 146) scale(1.5)">
      <path d="M171.76,109.5c.92-9.02-2.67-18.35-9.75-24,1.37,3.02,2.66,5.55,3.52,8.84,5.32,20.2-8.34,43.39-30.82,41.31-18.16-1.68-21.17-16.77-33.11-26.89-5.64-4.78-11.37-6.79-15.67-13.58-11.88-18.71-.42-35.85,16.81-44.94-.52,8.49,1.98,17.94,9,23.25-4.26-9.79-5.59-17.77-2.27-28.15,5.86-18.31,25.75-27.78,42.71-17.16,7.6,4.75,10.5,13.29,16.64,19.36,9.01,8.9,19.89,10.61,23.55,25.2,4.37,17.42-6.84,28.65-20.62,36.76ZM172.5,73.5c.15-18.42-16.57-35.26-35.26-33.76l.7,5.68c15.42.26,28.19,12.46,28.56,28.07h6ZM142.5,119.25c13.55-5.4,17.35-20.47,8.56-32.19-4.67-6.23-18.69-16.36-21.47-22.03-1.68-3.43-1.54-7.39,0-10.82.49-1.09,2.41-2.65,2.41-2.84v-10.88c-13.31,5.22-17.12,20.8-8.56,32.19,4.88,6.5,18.3,15.92,21.46,22.04,2.18,4.23,1.74,7.23-.28,11.27-.41.83-2.12,2.22-2.12,2.38v10.88ZM161.25,73.5c.15-12.68-10.77-22.75-23.28-22.94-1.12.82-1.15,5.35-.03,6.11,10.28.01,15.93,7.04,18,16.5l5.3.33ZM150,73.5c.05-5.41-3.02-9.39-8.1-11.02-1.04-.33-3.58-1.46-4.31-.26-2.09,7.42,1.57,4.5,4.57,6.74,2.46,1.84,1.27,6.2,7.83,4.54ZM107.96,86.29c-8.91-2.32-5.25,6.86-3.33,11.95,4.76,12.61,18.85,23.06,32.62,21.76l-.7-5.68c-15.33.3-28.09-12.91-28.59-28.03ZM119.24,86.26c-8.6-1.6-6.08,4.75-3.53,9.9,3.78,7.63,12.19,13.07,20.81,13.03l.69-5.65c-9.82-.34-17.81-7.16-17.97-17.28ZM137.16,92.33c-6.5.42-6.19-9.83-12.61-4.9,1.24,6.32,6.21,10.78,12.7,10.82l-.08-5.92Z"
            fill="url(#gradBR)" filter="url(#radiantGlow)" />
    </g>
  </g>
</svg>
